{
  "accessors": [
    {
      "bufferView": 2,
      "componentType": 5126,
      "count": 65533,
      "max": [
        10.376328468322754,
        22.218772888183594,
        17.701122283935547
      ],
      "min": [
        -20.84221839904785,
        -14.567585945129395,
        -0.6776962280273438
      ],
      "type": "VEC3"
    },
    {
      "bufferView": 2,
      "byteOffset": 786396,
      "componentType": 5126,
      "count": 65533,
      "max": [
        0.9996963739395142,
        0.9999253153800964,
        0.9999964237213135
      ],
      "min": [
        -0.9999781847000122,
        -0.9999796152114868,
        -0.9993796944618225
      ],
      "type": "VEC3"
    },
    {
      "bufferView": 1,
      "componentType": 5126,
      "count": 65533,
      "max": [
        0.9997338652610779,
        0.9919432401657104
      ],
      "min": [
        0.000244140625,
        0.0002540542045608163
      ],
      "type": "VEC2"
    },
    {
      "bufferView": 0,
      "componentType": 5125,
      "count": 219396,
      "type": "SCALAR"
    },
    {
      "bufferView": 2,
      "byteOffset": 1572792,
      "componentType": 5126,
      "count": 65532,
      "max": [
        11.758594512939453,
        14.925104141235352,
        20.931730270385742
      ],
      "min": [
        -20.82421875,
        -14.56755256652832,
        -0.6737442016601563
      ],
      "type": "VEC3"
    },
    {
      "bufferView": 2,
      "byteOffset": 2359176,
      "componentType": 5126,
      "count": 65532,
      "max": [
        0.9994708299636841,
        0.99990314245224,
        0.9999881982803345
      ],
      "min": [
        -0.9999910593032837,
        -0.99994957447052,
        -0.9992921948432922
      ],
      "type": "VEC3"
    },
    {
      "bufferView": 1,
      "byteOffset": 524264,
      "componentType": 5126,
      "count": 65532,
      "max": [
        0.9997530579566956,
        0.9890135526657104
      ],
      "min": [
        0.000244140625,
        0.00024916662368923426
      ],
      "type": "VEC2"
    },
    {
      "bufferView": 0,
      "byteOffset": 877584,
      "componentType": 5125,
      "count": 177987,
      "type": "SCALAR"
    },
    {
      "bufferView": 2,
      "byteOffset": 3145560,
      "componentType": 5126,
      "count": 31368,
      "max": [
        9.052050590515137,
        22.176210403442383,
        16.33525848388672
      ],
      "min": [
        -20.81353759765625,
        -14.565799713134766,
        -1.4576148986816406
      ],
      "type": "VEC3"
    },
    {
      "bufferView": 2,
      "byteOffset": 3521976,
      "componentType": 5126,
      "count": 31368,
      "max": [
        0.999997079372406,
        0.999837338924408,
        0.9999927282333374
      ],
      "min": [
        -0.9999940991401672,
        -0.9998864531517029,
        -0.9992017149925232
      ],
      "type": "VEC3"
    },
    {
      "bufferView": 1,
      "byteOffset": 1048520,
      "componentType": 5126,
      "count": 31368,
      "max": [
        0.9997448921203613,
        0.9909666776657104
      ],
      "min": [
        0.000244140625,
        0.00028290285263210535
      ],
      "type": "VEC2"
    },
    {
      "bufferView": 0,
      "byteOffset": 1589532,
      "componentType": 5125,
      "count": 88113,
      "type": "SCALAR"
    }
  ],
  "asset": {
    "extras": {
      "author": "Goromor (https://sketchfab.com/gorllu)",
      "license": "CC-BY-4.0 (http://creativecommons.org/licenses/by/4.0/)",
      "source": "https://sketchfab.com/3d-models/rock-sandstone-formation-experimental-963c2a84130e487ab89157fb647d0a2f",
      "title": "Rock sandstone formation (experimental)"
    },
    "generator": "Sketchfab-13.24.0",
    "version": "2.0"
  },
  "bufferViews": [
    {
      "buffer": 0,
      "byteLength": 1941984,
      "name": "floatBufferViews",
      "target": 34963
    },
    {
      "buffer": 0,
      "byteLength": 1299464,
      "byteOffset": 1941984,
      "byteStride": 8,
      "name": "floatBufferViews",
      "target": 34962
    },
    {
      "buffer": 0,
      "byteLength": 3898392,
      "byteOffset": 3241448,
      "byteStride": 12,
      "name": "floatBufferViews",
      "target": 34962
    }
  ],
  "buffers": [
    {
      "byteLength": 7139840,
      "uri": "scene.bin"
    }
  ],
  "extensionsUsed": [
    "KHR_materials_unlit"
  ],
  "images": [
    {
      "uri": "textures/svycarsko_str_u1_v1_baseColor.png"
    }
  ],
  "materials": [
    {
      "doubleSided": true,
      "extensions": {
        "KHR_materials_unlit": {}
      },
      "name": "svycarsko_str_u1_v1",
      "pbrMetallicRoughness": {
        "baseColorTexture": {
          "index": 0
        },
        "metallicFactor": 0.0
      }
    }
  ],
  "meshes": [
    {
      "name": "Object_0",
      "primitives": [
        {
          "attributes": {
            "NORMAL": 1,
            "POSITION": 0,
            "TEXCOORD_0": 2
          },
          "indices": 3,
          "material": 0,
          "mode": 4
        }
      ]
    },
    {
      "name": "Object_1",
      "primitives": [
        {
          "attributes": {
            "NORMAL": 5,
            "POSITION": 4,
            "TEXCOORD_0": 6
          },
          "indices": 7,
          "material": 0,
          "mode": 4
        }
      ]
    },
    {
      "name": "Object_2",
      "primitives": [
        {
          "attributes": {
            "NORMAL": 9,
            "POSITION": 8,
            "TEXCOORD_0": 10
          },
          "indices": 11,
          "material": 0,
          "mode": 4
        }
      ]
    }
  ],
  "nodes": [
    {
      "children": [
        1
      ],
      "matrix": [
        1.0,
        0.0,
        0.0,
        0.0,
        0.0,
        2.220446049250313e-16,
        -1.0,
        0.0,
        0.0,
        1.0,
        2.220446049250313e-16,
        0.0,
        0.0,
        0.0,
        0.0,
        1.0
      ],
      "name": "Sketchfab_model"
    },
    {
      "children": [
        2,
        3,
        4
      ],
      "name": "svycarsko_str.obj.cleaner.materialmerger.gles"
    },
    {
      "mesh": 0,
      "name": "Object_2"
    },
    {
      "mesh": 1,
      "name": "Object_3"
    },
    {
      "mesh": 2,
      "name": "Object_4"
    }
  ],
  "samplers": [
    {
      "magFilter": 9729,
      "minFilter": 9987,
      "wrapS": 10497,
      "wrapT": 10497
    }
  ],
  "scene": 0,
  "scenes": [
    {
      "name": "Sketchfab_Scene",
      "nodes": [
        0
      ]
    }
  ],
  "textures": [
    {
      "sampler": 0,
      "source": 0
    }
  ]
}
