{
  "accessors": [
    {
      "bufferView": 2,
      "componentType": 5126,
      "count": 63116,
      "max": [
        1.023047685623169,
        0.06158018112182617,
        5.455302715301514
      ],
      "min": [
        -2.3817083835601807,
        -0.6985721588134766,
        0.26828864216804504
      ],
      "type": "VEC3"
    },
    {
      "bufferView": 2,
      "byteOffset": 757392,
      "componentType": 5126,
      "count": 63116,
      "max": [
        0.9999828934669495,
        0.9999996423721313,
        0.9999977946281433
      ],
      "min": [
        -0.9999884963035583,
        -0.9988583922386169,
        -0.9997720122337341
      ],
      "type": "VEC3"
    },
    {
      "bufferView": 1,
      "componentType": 5126,
      "count": 63116,
      "max": [
        0.9999944567680359,
        0.9986690282821655
      ],
      "min": [
        1.4049709534447175e-05,
        1.6876656445674598e-05
      ],
      "type": "VEC2"
    },
    {
      "bufferView": 1,
      "byteOffset": 504928,
      "componentType": 5126,
      "count": 63116,
      "max": [
        0.9999944567680359,
        0.9986690282821655
      ],
      "min": [
        1.4049709534447175e-05,
        1.6876656445674598e-05
      ],
      "type": "VEC2"
    },
    {
      "bufferView": 1,
      "byteOffset": 1009856,
      "componentType": 5126,
      "count": 63116,
      "max": [
        0.9999944567680359,
        0.9986690282821655
      ],
      "min": [
        1.4049709534447175e-05,
        1.6876656445674598e-05
      ],
      "type": "VEC2"
    },
    {
      "bufferView": 1,
      "byteOffset": 1514784,
      "componentType": 5126,
      "count": 63116,
      "max": [
        0.9999944567680359,
        0.9986690282821655
      ],
      "min": [
        1.4049709534447175e-05,
        1.6876656445674598e-05
      ],
      "type": "VEC2"
    },
    {
      "bufferView": 1,
      "byteOffset": 2019712,
      "componentType": 5126,
      "count": 63116,
      "max": [
        0.9999944567680359,
        0.9986690282821655
      ],
      "min": [
        1.4049709534447175e-05,
        1.6876656445674598e-05
      ],
      "type": "VEC2"
    },
    {
      "bufferView": 0,
      "componentType": 5125,
      "count": 275493,
      "type": "SCALAR"
    }
  ],
  "asset": {
    "extras": {
      "author": "thuberchs (https://sketchfab.com/thuberchs)",
      "license": "CC-BY-NC-SA-4.0 (http://creativecommons.org/licenses/by-nc-sa/4.0/)",
      "source": "https://sketchfab.com/3d-models/hills-river-landscape-ef86beee4e5a4522bd5932e9045fa1e5",
      "title": "Hills river landscape"
    },
    "generator": "Sketchfab-13.23.0",
    "version": "2.0"
  },
  "bufferViews": [
    {
      "buffer": 0,
      "byteLength": 1101972,
      "name": "floatBufferViews",
      "target": 34963
    },
    {
      "buffer": 0,
      "byteLength": 2524640,
      "byteOffset": 1101972,
      "byteStride": 8,
      "name": "floatBufferViews",
      "target": 34962
    },
    {
      "buffer": 0,
      "byteLength": 1514784,
      "byteOffset": 3626612,
      "byteStride": 12,
      "name": "floatBufferViews",
      "target": 34962
    }
  ],
  "buffers": [
    {
      "byteLength": 5141396,
      "uri": "scene.bin"
    }
  ],
  "extensionsUsed": [
    "KHR_materials_unlit"
  ],
  "images": [
    {
      "uri": "textures/material_0_baseColor.jpeg"
    }
  ],
  "materials": [
    {
      "extensions": {
        "KHR_materials_unlit": {}
      },
      "name": "material_0",
      "pbrMetallicRoughness": {
        "baseColorTexture": {
          "index": 0
        },
        "metallicFactor": 0.0
      }
    }
  ],
  "meshes": [
    {
      "name": "Object_0",
      "primitives": [
        {
          "attributes": {
            "NORMAL": 1,
            "POSITION": 0,
            "TEXCOORD_0": 2,
            "TEXCOORD_1": 3,
            "TEXCOORD_2": 4,
            "TEXCOORD_3": 5,
            "TEXCOORD_4": 6
          },
          "indices": 7,
          "material": 0,
          "mode": 4
        }
      ]
    }
  ],
  "nodes": [
    {
      "children": [
        1
      ],
      "matrix": [
        1.0,
        0.0,
        0.0,
        0.0,
        0.0,
        2.220446049250313e-16,
        -1.0,
        0.0,
        0.0,
        1.0,
        2.220446049250313e-16,
        0.0,
        0.0,
        0.0,
        0.0,
        1.0
      ],
      "name": "Sketchfab_model"
    },
    {
      "children": [
        2
      ],
      "name": "root"
    },
    {
      "children": [
        3
      ],
      "matrix": [
        1.0,
        0.0,
        0.0,
        0.0,
        0.0,
        2.220446049250313e-16,
        1.0,
        0.0,
        0.0,
        -1.0,
        2.220446049250313e-16,
        0.0,
        0.0,
        0.0,
        0.0,
        1.0
      ],
      "name": "GLTF_SceneRootNode"
    },
    {
      "children": [
        4
      ],
      "name": "_0"
    },
    {
      "mesh": 0,
      "name": "Object_4"
    }
  ],
  "samplers": [
    {
      "magFilter": 9729,
      "minFilter": 9987,
      "wrapS": 10497,
      "wrapT": 10497
    }
  ],
  "scene": 0,
  "scenes": [
    {
      "name": "Sketchfab_Scene",
      "nodes": [
        0
      ]
    }
  ],
  "textures": [
    {
      "sampler": 0,
      "source": 0
    }
  ]
}
